<?xml version="1.0" encoding="UTF-8" standalone="no"?><!DOCTYPE svg PUBLIC "-//W3C//DTD SVG 1.1//EN" "http://www.w3.org/Graphics/SVG/1.1/DTD/svg11.dtd"><svg width="100%" height="100%" viewBox="0 0 750 200" version="1.1" xmlns="http://www.w3.org/2000/svg" xmlns:xlink="http://www.w3.org/1999/xlink" xml:space="preserve" xmlns:serif="http://www.serif.com/" style="fill-rule:evenodd;clip-rule:evenodd;stroke-linejoin:round;stroke-miterlimit:2;"><g><g><g><g><path d="M666.743,107.451l-0,38.593l57.946,0l25.467,0.09l-8.486,-21.219l8.486,-7.807l-83.413,-9.657Z" style="fill:#c3d7f4;fill-rule:nonzero;"/><rect x="658.606" y="105.712" width="5.149" height="90.415" style="fill:#c3d7f4;"/><path d="M659.423,103.384l3.521,-0c1.161,-0 2.104,0.854 2.104,1.905l0,0.428c0,1.931 -1.732,3.499 -3.865,3.499c-2.133,0 -3.865,-1.568 -3.865,-3.499l-0,-0.428c-0,-1.051 0.944,-1.905 2.105,-1.905Z" style="fill:#c3d7f4;fill-rule:nonzero;"/></g><rect x="661.867" y="113.609" width="5.092" height="3.077" style="fill:#c3d7f4;"/><rect x="663.562" y="130.521" width="5.092" height="3.077" style="fill:#c3d7f4;"/></g><g><g><path d="M533.784,69.512l0,48.84l79.916,-0l35.127,0.111l-11.709,-26.851l11.709,-9.879l-115.043,-12.221Z" style="fill:#ffd880;fill-rule:nonzero;"/><rect x="522.566" y="66.747" width="7.103" height="129.38" style="fill:#ffd880;"/><path d="M522.976,63.047l6.282,0c1.208,0 2.185,0.889 2.185,1.978l0,3.641c0,2.008 -1.803,3.636 -4.016,3.636l-2.62,0c-2.218,0 -4.016,-1.632 -4.016,-3.636l0,-3.641c0,-1.093 0.982,-1.978 2.185,-1.978Z" style="fill:#ffd880;fill-rule:nonzero;"/></g><rect x="527.059" y="79.288" width="7.027" height="4.884" style="fill:#ffd880;"/><rect x="529.4" y="106.144" width="7.027" height="4.884" style="fill:#ffd880;"/></g><g><g><path d="M415.017,91.124l-0,62.556l103.278,0l45.392,0.145l-15.131,-34.397l15.131,-12.652l-148.67,-15.652Z" style="fill:#efc4f7;fill-rule:nonzero;"/><rect x="400.514" y="88.027" width="9.179" height="108.101" style="fill:#efc4f7;"/><path d="M401.599,83.869l7.004,0c1.869,0 3.384,1.372 3.384,3.064l0,1.7c0,3.107 -2.785,5.624 -6.211,5.624l-1.345,-0c-3.431,-0 -6.211,-2.522 -6.211,-5.624l0,-1.7c0,-1.692 1.515,-3.064 3.384,-3.064l-0.005,0Z" style="fill:#efc4f7;fill-rule:nonzero;"/><path d="M408.546,69.221l0,6.03c0,0.679 -0.523,1.23 -1.165,1.23l-1.128,0l-0,-7.26l-2.294,0l0,7.26l-1.128,0c-0.646,0 -1.166,-0.551 -1.166,-1.23l0,-6.03l-2.293,0l-0,7.26c-0,1.338 1.029,2.419 2.293,2.419l1.147,-0l0,9.682l4.592,0l0,-9.682l1.147,-0c1.27,-0 2.294,-1.086 2.294,-2.419l-0,-7.26l-2.299,0Z" style="fill:#efc4f7;fill-rule:nonzero;"/></g><rect x="406.319" y="102.102" width="9.08" height="5.478" style="fill:#e4bbea;"/><rect x="409.344" y="132.239" width="9.08" height="5.478" style="fill:#e4bbea;"/></g><g><g><path d="M273.186,40.379l-0,76.229l119.182,0l52.387,0.18l-17.463,-41.913l17.463,-15.421l-171.569,-19.075Z" style="fill:#ffae4d;fill-rule:nonzero;"/><rect x="256.45" y="36.722" width="10.595" height="160.5" style="fill:#ffae4d;"/><path d="M257.182,31.816l9.127,0c1.869,0 3.384,1.372 3.384,3.064l0,3.576c0,3.107 -2.784,5.624 -6.211,5.624l-3.464,-0c-3.431,-0 -6.211,-2.521 -6.211,-5.624l0,-3.576c0,-1.692 1.515,-3.064 3.384,-3.064l-0.009,0Z" style="fill:#ffae4d;fill-rule:nonzero;"/></g><rect x="263.147" y="53.335" width="10.477" height="6.469" style="fill:#ffae4d;"/><rect x="266.64" y="88.907" width="10.477" height="6.469" style="fill:#ffae4d;"/></g><g><g><path d="M30.389,39.298l0,126.064l304.198,0l-26.628,-69.315l26.628,-25.497l-304.198,-31.252Z" style="fill:#dd4e22;fill-rule:nonzero;"/><rect x="4.871" y="38.076" width="16.155" height="161.897" style="fill:#dd4e22;"/><path d="M4.215,30.765l17.467,0c1.869,0 3.383,1.372 3.383,3.064l0,9.592c0,3.107 -2.784,5.624 -6.21,5.624l-11.804,-0c-3.431,-0 -6.211,-2.521 -6.211,-5.624l0,-9.592c0,-1.692 1.515,-3.064 3.384,-3.064l-0.009,0Z" style="fill:#dd4e22;fill-rule:nonzero;"/></g><rect x="15.088" y="62.842" width="15.976" height="9.644" style="fill:#dd4e22;"/><rect x="20.412" y="115.873" width="15.976" height="9.644" style="fill:#dd4e22;"/></g></g><g><g><path d="M63.582,67.183c-0.397,0 -0.756,0.18 -1.072,0.539l0,14.652l7.792,-0l0,1.29l-2.973,1.346l-4.819,-0l0,10.127c0,1.329 0.156,2.281 0.477,2.854c0.316,0.577 0.972,0.863 1.963,0.863l0,1.671l-12.195,4.632l-0.953,-1.722c0.873,-0 1.703,-0.466 2.496,-1.402c0.713,-0.897 1.072,-2.26 1.072,-4.093l-0,-31.022c-0,-0.252 2.27,-1.141 6.81,-2.666c4.54,-1.525 7.15,-2.29 7.825,-2.29c0.236,-0 0.514,0.521 0.831,1.564c0.316,1.042 0.684,2.298 1.099,3.768c0.415,1.475 0.854,2.56 1.307,3.261c0.458,0.7 1.317,1.051 2.587,1.051l-0,1.077c-0.873,0.358 -2.351,0.995 -4.432,1.91c-2.081,0.914 -3.204,1.371 -3.36,1.371c-0.595,0 -1.35,-1.461 -2.261,-4.388c-0.911,-2.927 -1.647,-4.388 -2.199,-4.388l0.005,-0.005Z" style="fill:#ffd7f0;fill-rule:nonzero;"/><path d="M84.584,65.675l-0,29.786c-0,2.193 0.811,3.432 2.44,3.718l-0,1.184l-6.008,3.068c-0.874,-0.325 -1.685,-0.855 -2.44,-1.59c-0.756,-0.735 -1.128,-1.427 -1.128,-2.072l-0,-29.787c-0,-2.188 -0.812,-3.427 -2.44,-3.717l-0,-1.184l6.008,-3.068c0.873,0.325 1.684,0.855 2.44,1.59c0.755,0.734 1.132,1.427 1.132,2.072l-0.004,-0Z" style="fill:#ffd7f0;fill-rule:nonzero;"/><path d="M108.974,79.84l0,15.241c0,1.329 0.236,2.252 0.713,2.773c0.476,0.522 1.208,0.889 2.199,1.107l0,1.184l-6.485,3.286c-0.873,-0.325 -1.684,-0.855 -2.44,-1.59c-0.755,-0.735 -1.128,-1.41 -1.128,-2.021l-7.438,3.611c-0.118,-0.073 -0.297,-0.171 -0.533,-0.295c-0.236,-0.124 -0.646,-0.393 -1.218,-0.808c-0.575,-0.414 -1.08,-0.854 -1.519,-1.32c-1.19,-1.184 -1.784,-2.53 -1.784,-4.038l-0,-8.832c-0,-0.573 1.029,-1.312 3.096,-2.209c2.062,-0.898 4.125,-1.633 6.187,-2.21l3.153,-0.914c-0,-2.047 -0.595,-3.474 -1.784,-4.281c-1.19,-0.808 -3.493,-1.214 -6.9,-1.214l-0,-1.615c6.149,-1.974 9.599,-2.961 10.35,-2.961c1.307,-0 2.558,0.773 3.747,2.316c1.189,1.542 1.784,3.14 1.784,4.794l0,-0.004Zm-11.572,17.476c0.613,0.594 1.298,0.889 2.053,0.889c0.755,-0 1.548,-0.269 2.378,-0.808l0,-12.173c-0.991,0.324 -1.736,0.593 -2.232,0.807c-0.495,0.214 -1.019,0.556 -1.576,1.026c-1.034,0.863 -1.548,2.35 -1.548,4.469l-0,3.5c-0,0.935 0.307,1.696 0.92,2.29l0.005,-0Z" style="fill:#ffd7f0;fill-rule:nonzero;"/><path d="M134.611,80.109l-0,18.314c-0,0.324 -2.124,1.239 -6.367,2.747c-4.243,1.508 -6.98,2.261 -8.207,2.261c-1.227,-0 -2.388,-0.842 -3.479,-2.53c-1.09,-1.688 -1.637,-3.179 -1.637,-4.47l-0,-15.779c-0,-1.975 -0.973,-3.141 -2.917,-3.5l0,-1.184l6.485,-3.285c0.873,0.324 1.656,0.828 2.35,1.508c0.694,0.684 1.1,1.295 1.222,1.833l7.259,-3.286c1.189,0 2.369,0.773 3.54,2.316c1.17,1.543 1.755,3.23 1.755,5.063l-0.004,-0.008Zm-11.719,18.365c0.557,0.611 1.152,0.914 1.784,0.914c0.632,0 1.548,-0.269 2.737,-0.807l0,-15.242c0,-2.299 -0.377,-3.786 -1.128,-4.469c-0.755,-0.684 -2.161,-1.026 -4.224,-1.026l0,18.365c0,0.898 0.279,1.654 0.831,2.261l-0,0.004Z" style="fill:#ffd7f0;fill-rule:nonzero;"/><path d="M139.311,95.564l0,-17.882c0,-0.252 2.261,-1.141 6.782,-2.666c4.522,-1.526 7.117,-2.291 7.792,-2.291c0.675,0 1.694,0.735 3.063,2.209c1.369,1.475 2.053,2.799 2.053,3.987l0,19.497c0,0.287 -2.171,1.197 -6.513,2.718c-4.342,1.525 -6.999,2.29 -7.971,2.29c-0.972,0 -2.081,-0.773 -3.332,-2.316c-1.251,-1.542 -1.874,-3.392 -1.874,-5.546Zm10.171,2.91c0.755,-0 1.524,-0.286 2.322,-0.863l-0,-15.887c-0,-2.658 -1.01,-3.987 -3.035,-3.987c-0.793,0 -1.567,0.27 -2.322,0.808l0,15.942c0,2.658 1.01,3.987 3.035,3.987Z" style="fill:#ffd7f0;fill-rule:nonzero;"/><path d="M171.824,97.316c0.614,0.594 1.298,0.889 2.053,0.889c0.755,-0 1.548,-0.269 2.379,-0.808l-0,-16.75c-0,-2.187 -0.812,-3.431 -2.44,-3.717l-0,-1.184l6.008,-3.068c0.873,0.325 1.685,0.855 2.44,1.59c0.755,0.735 1.132,1.427 1.132,2.072l0,18.258c0,1.184 0.279,2.209 0.831,3.068c0.557,0.863 1.251,1.295 2.081,1.295l0,1.184c-0.278,0.034 -2.44,1.132 -6.484,3.286c-0.916,-0.359 -1.737,-0.889 -2.469,-1.59c-0.736,-0.701 -1.099,-1.372 -1.099,-2.021l-7.438,3.611c-0.118,-0.073 -0.298,-0.171 -0.534,-0.295c-0.236,-0.124 -0.646,-0.393 -1.222,-0.808c-0.576,-0.414 -1.081,-0.854 -1.515,-1.32c-1.189,-1.184 -1.784,-2.53 -1.784,-4.038l0,-16.318c0,-1.975 -0.972,-3.141 -2.917,-3.5l0,-1.184l6.485,-3.285c0.873,0.324 1.685,0.854 2.44,1.589c0.755,0.735 1.128,1.427 1.128,2.072l0,18.69c0,0.936 0.307,1.697 0.92,2.29l0.005,-0.008Z" style="fill:#ffd7f0;fill-rule:nonzero;"/><path d="M186.426,75.96l6.546,-3.23c0.279,0.072 0.604,0.17 0.982,0.294c0.378,0.129 0.892,0.479 1.548,1.051c0.656,0.577 0.982,1.223 0.982,1.94c0.198,-0.072 1.137,-0.636 2.827,-1.696c1.685,-1.06 2.765,-1.589 3.242,-1.589c1.27,-0 2.459,0.756 3.568,2.26c1.109,1.508 1.666,2.893 1.666,4.149l-0,2.641l-6.126,3.123l-1.01,-0.756c0,-3.017 -0.316,-4.739 -0.953,-5.17c-0.713,-0.466 -1.784,-0.701 -3.214,-0.701l-0,17.181c-0,2.192 0.811,3.431 2.44,3.718l-0,1.183l-6.008,3.068c-0.873,-0.325 -1.685,-0.854 -2.44,-1.589c-0.755,-0.735 -1.128,-1.427 -1.128,-2.073l-0,-17.882c-0,-1.581 -0.307,-2.764 -0.921,-3.555c-0.613,-0.79 -1.279,-1.184 -1.991,-1.184l-0,-1.183l-0.01,-0Z" style="fill:#ffd7f0;fill-rule:nonzero;"/></g><g><path d="M65.649,113.284c-0.397,-0 -0.755,0.179 -1.072,0.538l0,22.245c0,1.508 0.1,2.718 0.298,3.636c0.198,0.915 0.632,1.825 1.307,2.718c1.307,1.722 4.304,2.585 8.981,2.585l0,1.564c-0.198,-0 -1.666,0.496 -4.403,1.483c-2.737,0.987 -4.403,1.482 -4.998,1.482c-1.982,0 -3.865,-1.034 -5.649,-3.097c-1.784,-2.064 -2.676,-4.248 -2.676,-6.542l-0,-26.877c-0,-0.252 2.27,-1.141 6.81,-2.666c4.54,-1.526 7.15,-2.291 7.825,-2.291c0.236,0 0.514,0.522 0.831,1.564c0.316,1.043 0.684,2.299 1.099,3.769c0.416,1.474 0.855,2.559 1.308,3.26c0.453,0.701 1.316,1.051 2.586,1.051l-0,1.077c-0.873,0.359 -2.35,0.996 -4.432,1.91c-2.081,0.915 -3.204,1.372 -3.36,1.372c-0.595,-0 -1.35,-1.462 -2.261,-4.389c-0.911,-2.927 -1.647,-4.388 -2.199,-4.388l0.005,-0.004Z" style="fill:#ffd7f0;fill-rule:nonzero;"/><path d="M78.557,122.06l6.546,-3.23c0.278,0.073 0.604,0.171 0.981,0.295c0.378,0.128 0.892,0.479 1.548,1.051c0.656,0.577 0.982,1.222 0.982,1.94c0.198,-0.073 1.137,-0.637 2.827,-1.696c1.685,-1.06 2.766,-1.59 3.242,-1.59c1.27,0 2.459,0.756 3.568,2.261c1.109,1.508 1.666,2.892 1.666,4.149l0,2.64l-6.126,3.124l-1.01,-0.757c0,-3.016 -0.321,-4.738 -0.953,-5.17c-0.713,-0.466 -1.784,-0.701 -3.214,-0.701l-0,17.182c-0,2.192 0.812,3.431 2.44,3.717l-0,1.184l-6.008,3.068c-0.873,-0.325 -1.685,-0.855 -2.44,-1.59c-0.755,-0.735 -1.128,-1.427 -1.128,-2.072l0,-17.882c0,-1.581 -0.307,-2.765 -0.92,-3.555c-0.614,-0.791 -1.279,-1.184 -1.992,-1.184l0,-1.184l-0.009,0Z" style="fill:#ffd7f0;fill-rule:nonzero;"/><path d="M112.136,143.417c0.614,0.594 1.298,0.888 2.053,0.888c0.755,0 1.548,-0.269 2.379,-0.807l-0,-16.75c-0,-2.188 -0.812,-3.431 -2.44,-3.718l-0,-1.183l6.008,-3.068c0.873,0.325 1.685,0.854 2.44,1.589c0.755,0.735 1.132,1.428 1.132,2.073l0,18.258c0,1.184 0.279,2.209 0.836,3.068c0.552,0.863 1.25,1.295 2.081,1.295l0,1.183c-0.278,0.034 -2.44,1.133 -6.485,3.286c-0.91,-0.359 -1.736,-0.889 -2.468,-1.589c-0.736,-0.701 -1.099,-1.372 -1.099,-2.021l-7.438,3.61c-0.118,-0.073 -0.298,-0.171 -0.534,-0.295c-0.236,-0.124 -0.646,-0.393 -1.222,-0.807c-0.576,-0.415 -1.081,-0.855 -1.515,-1.321c-1.189,-1.183 -1.784,-2.529 -1.784,-4.038l-0,-16.318c-0,-1.974 -0.972,-3.14 -2.917,-3.499l0,-1.184l6.485,-3.286c0.873,0.325 1.685,0.855 2.44,1.59c0.755,0.735 1.128,1.427 1.128,2.072l-0,18.69c-0,0.936 0.307,1.696 0.92,2.29l0,-0.008Z" style="fill:#ffd880;fill-rule:nonzero;"/><path d="M127.394,123.248l0,-1.132l6.188,-3.286l1.666,0l6.961,12.712l1.487,-0.645l-0,-4.256c-0,-1.043 -0.199,-1.859 -0.595,-2.453c-0.396,-0.594 -0.793,-0.944 -1.189,-1.051l-0.656,-0.107l-0,-1.183l5.71,-3.068c0.317,-0 0.991,0.406 2.025,1.213c1.029,0.808 1.548,1.573 1.548,2.291l-0,8.4c-0,0.577 -2.298,1.615 -6.9,3.124l6.008,10.127c0.514,0.756 1.586,1.132 3.214,1.132l0,1.184l-6.485,3.285l-1.666,0l-7.494,-13.626l-1.605,0.701l0,5.063c0,1.043 0.198,1.859 0.595,2.449c0.396,0.594 0.793,0.923 1.189,0.995l0.656,0.163l0,1.183l-5.711,3.068c-0.316,0 -0.991,-0.406 -2.019,-1.213c-1.034,-0.808 -1.548,-1.569 -1.548,-2.291l-0,-9.208c-0,-0.572 2.359,-1.653 7.079,-3.23l-4.639,-8.563c-0.279,-0.539 -0.647,-0.953 -1.1,-1.239c-0.458,-0.287 -0.864,-0.449 -1.223,-0.483c-0.358,-0.034 -0.854,-0.056 -1.486,-0.056l-0.01,0Z" style="fill:#ffd880;fill-rule:nonzero;"/><path d="M174.038,125.94l-0,15.242c-0,1.329 0.236,2.252 0.712,2.773c0.477,0.521 1.208,0.889 2.204,1.107l0,1.183l-6.484,3.286c-0.874,-0.325 -1.685,-0.854 -2.44,-1.589c-0.756,-0.735 -1.128,-1.41 -1.128,-2.021l-7.438,3.61c-0.118,-0.073 -0.298,-0.171 -0.534,-0.295c-0.236,-0.124 -0.646,-0.393 -1.217,-0.807c-0.576,-0.415 -1.081,-0.855 -1.52,-1.321c-1.189,-1.183 -1.784,-2.529 -1.784,-4.038l0,-8.832c0,-0.572 1.029,-1.311 3.091,-2.209c2.063,-0.897 4.125,-1.632 6.188,-2.209l3.152,-0.914c0,-2.047 -0.594,-3.474 -1.784,-4.282c-1.189,-0.807 -3.487,-1.213 -6.9,-1.213l0,-1.615c6.145,-1.975 9.595,-2.962 10.35,-2.962c1.308,0 2.558,0.774 3.748,2.316c1.189,1.543 1.784,3.141 1.784,4.795l-0,-0.005Zm-11.573,17.477c0.614,0.594 1.298,0.888 2.053,0.888c0.755,0 1.548,-0.269 2.379,-0.807l-0,-12.174c-0.991,0.325 -1.737,0.594 -2.232,0.808c-0.496,0.213 -1.02,0.555 -1.577,1.025c-1.033,0.863 -1.548,2.35 -1.548,4.47l0,3.499c0,0.936 0.307,1.697 0.921,2.291l0.004,-0Z" style="fill:#ffd7f0;fill-rule:nonzero;"/><path d="M189.98,108.058c1.071,0 2.756,2.35 5.055,7.055c2.298,4.704 3.45,7.952 3.45,9.751l-0,16.425c-0,0.824 0.245,1.632 0.741,2.422c0.495,0.791 1.198,1.24 2.114,1.346l0,1.184c-0.278,0.034 -2.44,1.132 -6.485,3.286c-0.915,-0.359 -1.736,-0.889 -2.468,-1.59c-0.731,-0.7 -1.1,-1.354 -1.1,-1.965c-4.242,2.371 -6.72,3.555 -7.438,3.555c-0.278,-0 -0.802,-0.278 -1.576,-0.833c-0.774,-0.556 -1.548,-1.363 -2.322,-2.423c-0.774,-1.06 -1.161,-2.145 -1.161,-3.26l0,-19.229c0,-0.358 3.351,-1.598 10.053,-3.717c-1.426,-2.837 -2.577,-4.828 -3.45,-5.978c-0.873,-1.149 -1.728,-1.722 -2.558,-1.722l-1.964,0l0,-1.615c4.404,-1.795 7.438,-2.692 9.104,-2.692l0.005,0Zm-1.015,36.517c0.751,-0 1.525,-0.287 2.318,-0.864l-0,-18.741c-0,-0.213 -0.17,-0.675 -0.505,-1.376c-0.34,-0.7 -0.585,-1.051 -0.741,-1.051c-1.152,0 -2.322,0.325 -3.512,0.97l-0.594,0.325l-0,16.75c-0,2.658 1.01,3.987 3.034,3.987Z" style="fill:#ffd7f0;fill-rule:nonzero;"/><path d="M217.759,118.83c0.199,0 0.694,0.278 1.487,0.833c0.793,0.556 1.586,1.329 2.379,2.316c0.792,0.987 1.189,1.949 1.189,2.88l-0,9.05c-0,0.646 -1.053,1.436 -3.153,2.372c-2.1,0.936 -4.134,1.696 -6.097,2.29c-1.964,0.594 -3.026,0.889 -3.181,0.889c-0,2.764 1.326,4.469 3.988,5.115c1.307,0.286 2.874,0.431 4.7,0.431l0,1.564c-6.503,1.974 -9.977,2.961 -10.411,2.961c-1.189,0 -2.397,-0.76 -3.629,-2.29c-1.232,-1.526 -1.846,-3.312 -1.846,-5.358l0,-18.096c0,-0.252 2.261,-1.141 6.782,-2.667c4.522,-1.525 7.117,-2.29 7.792,-2.29Zm-2.855,6.008c-0.514,-0.701 -1.17,-1.051 -1.963,-1.051c-0.793,-0 -1.666,0.269 -2.62,0.807l0,12.443c3.568,-0.897 5.352,-2.837 5.352,-5.815l0,-3.825c0,-1.004 -0.259,-1.858 -0.774,-2.559l0.005,-0Z" style="fill:#ffd7f0;fill-rule:nonzero;"/><path d="M224.362,122.06l6.541,-3.23c0.279,0.073 0.604,0.171 0.982,0.295c0.377,0.128 0.892,0.479 1.548,1.051c0.656,0.577 0.982,1.222 0.982,1.94c0.198,-0.073 1.137,-0.637 2.827,-1.696c1.684,-1.06 2.765,-1.59 3.242,-1.59c1.269,0 2.459,0.756 3.568,2.261c1.109,1.508 1.666,2.892 1.666,4.149l-0,2.64l-6.126,3.124l-1.01,-0.757c-0,-3.016 -0.316,-4.738 -0.953,-5.17c-0.713,-0.466 -1.784,-0.701 -3.214,-0.701l-0,17.182c-0,2.192 0.811,3.431 2.44,3.717l-0,1.184l-6.008,3.068c-0.874,-0.325 -1.685,-0.855 -2.44,-1.59c-0.756,-0.735 -1.133,-1.427 -1.133,-2.072l-0,-17.882c-0,-1.581 -0.307,-2.765 -0.92,-3.555c-0.614,-0.791 -1.279,-1.184 -1.992,-1.184l-0,-1.184Z" style="fill:#ffd7f0;fill-rule:nonzero;"/><path d="M251.428,137.738c-0.991,-0 -1.845,-0.684 -2.558,-2.047c-0.712,-1.363 -1.071,-3.034 -1.071,-5.008l0,-5.815c0,-0.684 2.081,-1.859 6.244,-3.53c4.163,-1.67 6.565,-2.504 7.197,-2.504c0.359,0 0.675,0.188 0.954,0.564c0.278,0.376 0.495,0.684 0.656,0.915c0.155,0.235 0.406,0.628 0.745,1.183c0.336,0.556 0.623,1.013 0.864,1.372c0.515,0.863 1.171,1.29 1.963,1.29l0,1.077c-0.637,0.252 -1.467,0.628 -2.496,1.133c-2.539,1.256 -3.908,1.884 -4.106,1.884c-0.595,-0 -1.241,-0.88 -1.935,-2.641c-0.694,-1.76 -1.322,-2.64 -1.874,-2.64c-0.713,-0 -1.071,0.538 -1.071,1.615l-0,6.623c-0,1.436 0.358,2.153 1.071,2.153c0.156,0 1.388,-0.465 3.691,-1.401c2.298,-0.932 3.69,-1.402 4.162,-1.402c0.954,0 1.794,0.693 2.53,2.073c0.732,1.384 1.1,3.149 1.1,5.307l-0,6.084c-0,0.684 -2.27,1.859 -6.811,3.53c-4.54,1.67 -7.15,2.504 -7.825,2.504c-0.278,-0 -0.547,-0.227 -0.802,-0.675c-0.259,-0.449 -0.613,-1.141 -1.071,-2.073c-0.458,-0.931 -0.902,-1.722 -1.341,-2.371c-0.514,-0.863 -1.17,-1.295 -1.963,-1.295l0,-1.077c0.633,-0.252 1.487,-0.628 2.558,-1.132c2.497,-1.256 3.847,-1.884 4.045,-1.884c0.594,-0 1.34,1.059 2.232,3.179c0.892,2.119 1.614,3.179 2.171,3.179c0.397,-0 0.774,-0.141 1.133,-0.432c0.358,-0.286 0.533,-0.679 0.533,-1.183l0,-6.735c0,-1.615 -0.495,-2.422 -1.487,-2.422c-0.316,-0 -1.566,0.431 -3.747,1.29c-2.18,0.863 -3.412,1.29 -3.691,1.29l0,0.022Z" style="fill:#ffd7f0;fill-rule:nonzero;"/></g></g><path d="M21.115,0.056l-0.052,14.745c-0.004,1.663 -1.208,3.009 -2.685,3.004l-2.586,-0.008l-1.393,-17.763l-2.661,-0.008l-1.213,17.754l-2.587,-0.009c-1.477,0 -2.671,-1.354 -2.666,-3.017l0.052,-14.745l-3.469,-0.009l-1.855,17.754c-0.009,3.269 2.336,5.927 5.243,5.935l4.904,0.009l-2.431,46.357c-0.009,2.632 2.341,4.773 5.249,4.781c2.907,0.009 5.271,-2.119 5.281,-4.751l-2.115,-46.357l4.904,0.008c2.907,0.009 5.276,-2.636 5.286,-5.905l-2.275,-17.763l-2.931,-0.008l0,-0.004Z" style="fill:#dd4e22;fill-rule:nonzero;"/><path d="M266.319,13.383l-0.029,8.46c0,0.953 -0.693,1.726 -1.543,1.722l-1.487,0l-0.797,-10.195l-1.525,-0l-0.693,10.182l-1.487,0c-0.85,-0.008 -1.534,-0.782 -1.529,-1.734l0.028,-8.461l-1.992,0l-1.061,10.183c-0.005,1.875 1.34,3.401 3.011,3.405l2.812,0l-1.392,26.603c-0.005,1.513 1.345,2.739 3.011,2.744c1.671,0.004 3.025,-1.218 3.03,-2.727l-1.213,-26.599l2.813,0c1.671,0.009 3.025,-1.508 3.035,-3.384l-1.308,-10.195l-1.68,0l-0.004,-0.004Z" style="fill:#ffae4d;fill-rule:nonzero;"/><path d="M529.187,50.074l-0.019,5.683c0,0.641 -0.467,1.158 -1.033,1.158l-0.996,0l-0.538,-6.845l-1.024,0l-0.467,6.837l-0.996,-0c-0.571,-0.004 -1.029,-0.526 -1.029,-1.167l0.019,-5.683l-1.336,0l-0.713,6.837c0,1.261 0.902,2.282 2.02,2.286l1.888,0l-0.934,17.861c-0,1.013 0.901,1.837 2.02,1.842c1.118,-0 2.029,-0.817 2.034,-1.829l-0.817,-17.857l1.888,0c1.119,0.004 2.03,-1.013 2.034,-2.273l-0.878,-6.841l-1.128,-0l0.005,-0.009Z" style="fill:#ffd880;fill-rule:nonzero;"/><path d="M663.467,93.492l-0.014,4.217c0,0.474 -0.344,0.859 -0.769,0.859l-0.741,-0l-0.396,-5.081l-0.76,0l-0.345,5.077l-0.741,-0c-0.425,-0 -0.764,-0.389 -0.764,-0.863l0.014,-4.218l-0.991,0l-0.529,5.076c0,0.936 0.67,1.697 1.501,1.697l1.402,-0l-0.694,13.259c-0,0.752 0.67,1.363 1.501,1.367c0.83,-0 1.505,-0.607 1.51,-1.359l-0.604,-13.259l1.401,0c0.831,0.005 1.511,-0.752 1.511,-1.688l-0.652,-5.08l-0.84,-0l0,-0.004Z" style="fill:#c3d7f4;fill-rule:nonzero;"/></g></svg>