<?xml version="1.0" encoding="UTF-8" standalone="no"?><!DOCTYPE svg PUBLIC "-//W3C//DTD SVG 1.1//EN" "http://www.w3.org/Graphics/SVG/1.1/DTD/svg11.dtd"><svg width="100%" height="100%" viewBox="0 0 129 118" version="1.1" xmlns="http://www.w3.org/2000/svg" xmlns:xlink="http://www.w3.org/1999/xlink" xml:space="preserve" xmlns:serif="http://www.serif.com/" style="fill-rule:evenodd;clip-rule:evenodd;stroke-miterlimit:10;"><g id="Layer_1-2"><g><path d="M4.92,4l118.85,0c-7.77,37.22 -25.53,71.59 -51.34,99.4l-8.09,8.71l-8.09,-8.71c-25.8,-27.81 -43.55,-62.18 -51.33,-99.4Z" style="fill:#ffebbf;fill-rule:nonzero;stroke:#dd4e22;stroke-width:8px;"/><path d="M71.46,16.65l-0.04,14.34c-0,1.62 -1.06,2.92 -2.37,2.92l-2.28,0l-1.23,-17.27l-2.34,0l-1.07,17.25l-2.28,0c-1.3,-0.01 -2.35,-1.32 -2.35,-2.94l0.04,-14.34l-3.06,0l-1.63,17.25c-0,3.18 2.06,5.76 4.62,5.77l4.32,-0l-2.14,45.07c-0,2.56 2.06,4.64 4.62,4.65c2.56,-0 4.64,-2.06 4.65,-4.62l-1.86,-45.06l4.32,-0c2.56,0.01 4.64,-2.55 4.65,-5.73l-2,-17.27l-2.58,-0l0.01,-0.02Z" style="fill:#dd4e22;fill-rule:nonzero;"/><g><path d="M87.39,52.93l-4.4,5.82l-7.34,-2.74l-15.52,16.26c-3.65,3.82 -9.71,3.97 -13.54,0.31c-3.83,-3.66 55.16,-51.43 55.16,-51.43l-1.06,4.14c-2.58,10.04 -7.09,19.42 -13.3,27.63l0,0.01Z" style="fill:#96aee2;fill-rule:nonzero;"/><path d="M41.3,52.93l4.4,5.82l7.34,-2.74l15.56,16.3c3.63,3.8 9.66,3.94 13.46,0.31l0.04,-0.04l-55.16,-51.42l1.06,4.14c2.58,10.04 7.09,19.42 13.3,27.63Z" style="fill:#96aee2;fill-rule:nonzero;"/></g></g></g></svg>